<svg width="24" height="24" viewBox="0 0 24 24" fill="none" xmlns="http://www.w3.org/2000/svg">
<path d="M21 20.7327C21 20.9979 20.8946 21.2523 20.7071 21.4398C20.5196 21.6273 20.2652 21.7327 20 21.7327H4C3.73478 21.7327 3.48043 21.6273 3.29289 21.4398C3.10536 21.2523 3 20.9979 3 20.7327V10.2227C2.99989 10.0703 3.03462 9.91991 3.10152 9.78299C3.16841 9.64608 3.26572 9.52626 3.386 9.43269L11.386 3.21069C11.5615 3.07414 11.7776 3 12 3C12.2224 3 12.4385 3.07414 12.614 3.21069L20.614 9.43269C20.7343 9.52626 20.8316 9.64608 20.8985 9.78299C20.9654 9.91991 21.0001 10.0703 21 10.2227V20.7327Z" fill="white"/>
</svg>
